<?xml version="1.0" encoding="UTF-8"?> <svg xmlns="http://www.w3.org/2000/svg" width="36.434" height="35.667" viewBox="0 0 36.434 35.667"><g id="Group_162" data-name="Group 162" transform="translate(-151.354 -8433.169)"><path id="Path_62" data-name="Path 62" d="M26.139,35.667H10.3A10.209,10.209,0,0,1,0,25.57V10.1A10.209,10.209,0,0,1,10.3,0H26.139A10.209,10.209,0,0,1,36.434,10.1V25.57a10.209,10.209,0,0,1-10.295,10.1M10.3,2.3A7.88,7.88,0,0,0,2.349,10.1V25.57A7.88,7.88,0,0,0,10.3,33.363H26.139a7.88,7.88,0,0,0,7.947-7.794V10.1A7.88,7.88,0,0,0,26.139,2.3Z" transform="translate(151.354 8433.169)" fill="#fff"></path><path id="Path_63" data-name="Path 63" d="M100.171,51.058c.728-.024,1.456-.005,2.186-.007h.3V47.336c-.389-.038-.8-.094-1.2-.113-.747-.033-1.5-.069-2.243-.052a5.572,5.572,0,0,0-3.166.96,4.633,4.633,0,0,0-1.9,3.1,10.638,10.638,0,0,0-.132,1.595c-.021.834,0,1.668,0,2.5v.312H90.382v4.151h3.6V70.226h4.4V59.809h3.592c.184-1.38.364-2.747.553-4.17h-.808c-1.022,0-3.367,0-3.367,0s.01-2.057.035-2.95c.035-1.223.775-1.6,1.774-1.631" transform="translate(73.05 8392.306)" fill="#fff" fill-rule="evenodd"></path></g></svg> 