<?xml version="1.0" encoding="UTF-8"?> <svg xmlns="http://www.w3.org/2000/svg" width="36.434" height="35.667" viewBox="0 0 36.434 35.667"><g id="Group_163" data-name="Group 163" transform="translate(-247.213 -8433.169)"><path id="Path_60" data-name="Path 60" d="M706,35.667H690.159a10.209,10.209,0,0,1-10.295-10.1V10.1A10.209,10.209,0,0,1,690.159,0H706A10.209,10.209,0,0,1,716.3,10.1V25.57A10.209,10.209,0,0,1,706,35.667M690.159,2.3a7.88,7.88,0,0,0-7.947,7.794V25.57a7.88,7.88,0,0,0,7.947,7.794H706a7.88,7.88,0,0,0,7.947-7.794V10.1A7.88,7.88,0,0,0,706,2.3Z" transform="translate(-432.651 8433.169)" fill="#fff"></path><path id="Path_61" data-name="Path 61" d="M770.408,56.6v3.69a8.824,8.824,0,0,1-5.145-1.646v7.531a6.826,6.826,0,0,1-10.623,5.667h0a6.82,6.82,0,0,1,3.8-12.487,6.948,6.948,0,0,1,.937.063V63.19a3.12,3.12,0,1,0,2.174,2.984V51.435h3.714v.475c.013.142.032.283.056.424a5.167,5.167,0,0,0,2.357,3.486l.334.192a5.149,5.149,0,0,0,2.4.588" transform="translate(-494.813 8388.607)" fill="#fff"></path></g></svg> 