<?xml version="1.0" encoding="UTF-8"?> <svg xmlns="http://www.w3.org/2000/svg" xmlns:xlink="http://www.w3.org/1999/xlink" width="74" height="52" viewBox="0 0 74 52"><defs><linearGradient id="linear-gradient" x1="0.975" y1="0.925" x2="0.04" gradientUnits="objectBoundingBox"><stop offset="0" stop-color="#f5f5f5"></stop><stop offset="1" stop-color="#f5f5f5"></stop></linearGradient><filter id="Rectangle_3" x="0" y="0" width="74" height="52" filterUnits="userSpaceOnUse"><feOffset dy="3"></feOffset><feGaussianBlur stdDeviation="3" result="blur"></feGaussianBlur><feFlood flood-opacity="0.161"></feFlood><feComposite operator="in" in2="blur"></feComposite><feComposite in="SourceGraphic"></feComposite></filter></defs><g id="Group_27" data-name="Group 27" transform="translate(-489 -417)"><g transform="matrix(1, 0, 0, 1, 489, 417)" filter="url(#Rectangle_3)"><rect id="Rectangle_3-2" data-name="Rectangle 3" width="56" height="34" rx="3" transform="translate(9 6)" fill="url(#linear-gradient)"></rect></g><g id="Group_5" data-name="Group 5" transform="translate(-216.001 6.904)"><path id="Path_16" data-name="Path 16" d="M31.178,19.2H27.8a.469.469,0,0,0-.463.4l-1.364,8.653a.282.282,0,0,0,.278.325h1.732a.329.329,0,0,0,.324-.277l.387-2.454a.469.469,0,0,1,.463-.4h1.068a3.467,3.467,0,0,0,3.841-3.208,2.6,2.6,0,0,0-.43-2.178A3.138,3.138,0,0,0,31.178,19.2Zm.389,3.161c-.184,1.211-1.11,1.211-2,1.211h-.509l.357-2.262a.282.282,0,0,1,.278-.237c.741,0,1.392-.03,1.715.347A1.128,1.128,0,0,1,31.567,22.364Z" transform="translate(718.098 409)" fill="#009ee3"></path><path id="Path_17" data-name="Path 17" d="M11.206,19.2H7.832a.469.469,0,0,0-.463.4L6,28.252a.282.282,0,0,0,.278.325H7.894a.469.469,0,0,0,.463-.4l.369-2.334a.469.469,0,0,1,.463-.4h1.068A3.467,3.467,0,0,0,14.1,22.244a2.6,2.6,0,0,0-.43-2.178A3.136,3.136,0,0,0,11.206,19.2Zm.389,3.161c-.184,1.211-1.11,1.211-2,1.211h-.51l.357-2.262a.282.282,0,0,1,.278-.237H9.95c.609,0,1.185,0,1.481.347A1.128,1.128,0,0,1,11.6,22.364Z" transform="translate(714 409)" fill="#113984"></path><path id="Path_18" data-name="Path 18" d="M19.991,21.82H18.375a.282.282,0,0,0-.278.237l-.071.452c-.157-.228-.469-.841-2.022-.841a3.716,3.716,0,0,0-3.607,3.25A3.054,3.054,0,0,0,13,27.4a2.531,2.531,0,0,0,2.036.822A3.093,3.093,0,0,0,17.27,27.3l-.072.45a.282.282,0,0,0,.278.325h1.456a.469.469,0,0,0,.463-.4l.874-5.532A.282.282,0,0,0,19.991,21.82Zm-2.252,3.146a1.8,1.8,0,0,1-1.823,1.543,1.252,1.252,0,0,1-1.338-1.572,1.809,1.809,0,0,1,1.811-1.555,1.361,1.361,0,0,1,1.077.44A1.4,1.4,0,0,1,17.739,24.965Z" transform="translate(715.302 409.506)" fill="#113984"></path><path id="Path_19" data-name="Path 19" d="M39.963,21.82H38.347a.282.282,0,0,0-.278.237L38,22.509c-.157-.228-.469-.841-2.022-.841a3.716,3.716,0,0,0-3.607,3.25,3.054,3.054,0,0,0,.6,2.483,2.531,2.531,0,0,0,2.036.822,3.093,3.093,0,0,0,2.237-.924l-.072.45a.282.282,0,0,0,.278.325H38.9a.469.469,0,0,0,.463-.4l.874-5.532A.281.281,0,0,0,39.963,21.82Zm-2.252,3.146a1.8,1.8,0,0,1-1.823,1.543,1.252,1.252,0,0,1-1.338-1.572,1.809,1.809,0,0,1,1.811-1.555,1.361,1.361,0,0,1,1.077.44A1.4,1.4,0,0,1,37.711,24.965Z" transform="translate(719.4 409.506)" fill="#009ee3"></path><path id="Path_20" data-name="Path 20" d="M27.113,21.794H25.489A.469.469,0,0,0,25.1,22l-2.24,3.3-.95-3.171a.469.469,0,0,0-.45-.335h-1.6a.281.281,0,0,0-.266.372l1.788,5.25L19.7,29.79a.281.281,0,0,0,.229.444h1.622a.471.471,0,0,0,.386-.2l5.4-7.8A.28.28,0,0,0,27.113,21.794Z" transform="translate(716.787 409.532)" fill="#113984"></path><path id="Path_21" data-name="Path 21" d="M40.478,19.441l-1.385,8.812a.282.282,0,0,0,.278.325h1.393a.469.469,0,0,0,.463-.4l1.365-8.653a.282.282,0,0,0-.278-.325h-1.56A.278.278,0,0,0,40.478,19.441Z" transform="translate(720.789 409)" fill="#009ee3"></path></g></g></svg> 