<?xml version="1.0" encoding="UTF-8"?> <svg xmlns="http://www.w3.org/2000/svg" xmlns:xlink="http://www.w3.org/1999/xlink" width="74" height="52" viewBox="0 0 74 52"><defs><linearGradient id="linear-gradient" x1="0.975" y1="0.925" x2="0.04" gradientUnits="objectBoundingBox"><stop offset="0" stop-color="#f5f5f5"></stop><stop offset="1" stop-color="#f5f5f5"></stop></linearGradient><filter id="Rectangle_6" x="0" y="0" width="74" height="52" filterUnits="userSpaceOnUse"><feOffset dy="3"></feOffset><feGaussianBlur stdDeviation="3" result="blur"></feGaussianBlur><feFlood flood-opacity="0.161"></feFlood><feComposite operator="in" in2="blur"></feComposite><feComposite in="SourceGraphic"></feComposite></filter></defs><g id="Group_24" data-name="Group 24" transform="translate(-680 -417)"><g transform="matrix(1, 0, 0, 1, 680, 417)" filter="url(#Rectangle_6)"><rect id="Rectangle_6-2" data-name="Rectangle 6" width="56" height="34" rx="3" transform="translate(9 6)" fill="url(#linear-gradient)"></rect></g><g id="Group_10" data-name="Group 10" transform="translate(699.601 308.615)"><path id="Path_37" data-name="Path 37" d="M6.691,126.649a2.264,2.264,0,0,1-1.816.859,2.556,2.556,0,0,1,.652-1.88,2.71,2.71,0,0,1,1.8-.928,2.743,2.743,0,0,1-.64,1.949m.628.992c-1-.058-1.862.571-2.335.571s-1.211-.542-2.006-.525a2.964,2.964,0,0,0-2.514,1.528c-1.084,1.862-.283,4.613.767,6.129.513.75,1.124,1.574,1.932,1.545.767-.029,1.067-.5,1.989-.5s1.2.5,2.006.484c.836-.017,1.361-.75,1.874-1.5a6.518,6.518,0,0,0,.836-1.724,2.724,2.724,0,0,1-1.632-2.474,2.774,2.774,0,0,1,1.32-2.324,2.85,2.85,0,0,0-2.237-1.217m5.789-2.087v11.237h1.747v-3.84h2.416a3.566,3.566,0,0,0,3.753-3.707,3.525,3.525,0,0,0-3.7-3.69H13.108Zm1.747,1.47h2.012a2.236,2.236,0,1,1-.006,4.463H14.855Zm9.352,9.854a2.879,2.879,0,0,0,2.572-1.436h.035v1.349h1.614V131.2c0-1.62-1.3-2.67-3.292-2.67-1.851,0-3.223,1.061-3.275,2.514h1.574a1.535,1.535,0,0,1,1.649-1.147c1.067,0,1.666.5,1.666,1.413v.623l-2.179.133c-2.024.121-3.119.951-3.119,2.393A2.481,2.481,0,0,0,24.207,136.877Zm.473-1.332c-.928,0-1.522-.45-1.522-1.13,0-.709.571-1.119,1.661-1.182l1.937-.121v.634A1.9,1.9,0,0,1,24.68,135.545Zm5.91,4.3c1.7,0,2.5-.652,3.2-2.618l3.062-8.591H35.075l-2.053,6.636h-.035l-2.053-6.636H29.113l2.952,8.182-.161.5a1.388,1.388,0,0,1-1.47,1.17c-.138,0-.4-.017-.513-.029v1.349A6.042,6.042,0,0,0,30.59,139.847Z" transform="translate(0 0)"></path></g></g></svg> 