<?xml version="1.0" encoding="UTF-8"?> <svg xmlns="http://www.w3.org/2000/svg" xmlns:xlink="http://www.w3.org/1999/xlink" width="74" height="52" viewBox="0 0 74 52"><defs><linearGradient id="linear-gradient" x1="0.975" y1="0.925" x2="0.04" gradientUnits="objectBoundingBox"><stop offset="0" stop-color="#f5f5f5"></stop><stop offset="1" stop-color="#f5f5f5"></stop></linearGradient><filter id="Rectangle_10" x="0" y="0" width="74" height="52" filterUnits="userSpaceOnUse"><feOffset dy="3"></feOffset><feGaussianBlur stdDeviation="3" result="blur"></feGaussianBlur><feFlood flood-opacity="0.161"></feFlood><feComposite operator="in" in2="blur"></feComposite><feComposite in="SourceGraphic"></feComposite></filter></defs><g id="Group_22" data-name="Group 22" transform="translate(-807 -417)"><g transform="matrix(1, 0, 0, 1, 807, 417)" filter="url(#Rectangle_10)"><rect id="Rectangle_10-2" data-name="Rectangle 10" width="56" height="34" rx="3" transform="translate(9 6)" fill="url(#linear-gradient)"></rect></g><g id="Group_16" data-name="Group 16" transform="translate(-139.164)"><path id="Path_53" data-name="Path 53" d="M25.539,21.013a3.509,3.509,0,0,0-3.572,3.443,3.569,3.569,0,1,0,3.572-3.443Z" transform="translate(958.825 416.004)" fill="#fa7000"></path><path id="Path_54" data-name="Path 54" d="M7.92,21.121H6v6.7H7.909a3.492,3.492,0,0,0,2.392-.775,3.365,3.365,0,0,0,1.217-2.574A3.327,3.327,0,0,0,7.92,21.121Zm1.528,5.032a2.488,2.488,0,0,1-1.791.533h-.35V22.255h.351A2.438,2.438,0,0,1,9.45,22.8a2.26,2.26,0,0,1,.72,1.667A2.3,2.3,0,0,1,9.449,26.153Z" transform="translate(956.164 416.022)" fill="#444"></path><rect id="Rectangle_11" data-name="Rectangle 11" width="1.302" height="6.7" transform="translate(968.283 437.143)" fill="#444"></rect><path id="Path_55" data-name="Path 55" d="M15.488,23.7c-.786-.288-1.016-.481-1.016-.842,0-.421.411-.741.975-.741a1.354,1.354,0,0,1,1.057.539l.68-.891a2.915,2.915,0,0,0-1.967-.744,1.968,1.968,0,0,0-2.09,1.916c0,.926.42,1.4,1.646,1.842a4.955,4.955,0,0,1,.905.383.8.8,0,0,1,.391.691.955.955,0,0,1-1.016.946,1.544,1.544,0,0,1-1.426-.9l-.842.817A2.607,2.607,0,0,0,15.105,28a2.165,2.165,0,0,0,2.312-2.2C17.419,24.732,16.976,24.249,15.488,23.7Z" transform="translate(957.295 416.006)" fill="#444"></path><path id="Path_56" data-name="Path 56" d="M17.108,24.495a3.47,3.47,0,0,0,3.537,3.5,3.6,3.6,0,0,0,1.636-.391v-1.54A2.078,2.078,0,0,1,20.7,26.8a2.187,2.187,0,0,1-2.248-2.31,2.228,2.228,0,0,1,2.19-2.3,2.178,2.178,0,0,1,1.636.754V21.4a3.345,3.345,0,0,0-1.609-.41A3.52,3.52,0,0,0,17.108,24.495Z" transform="translate(958.015 416)" fill="#444"></path><path id="Path_57" data-name="Path 57" d="M31.076,25.62l-1.786-4.5H27.864L30.7,27.99h.7l2.9-6.869H32.888Z" transform="translate(959.808 416.022)" fill="#444"></path><path id="Path_58" data-name="Path 58" d="M33.89,27.821H37.6V26.686H35.2V24.878H37.5V23.743H35.2V22.255h2.4V21.121H33.89Z" transform="translate(960.812 416.022)" fill="#444"></path><path id="Path_59" data-name="Path 59" d="M42.116,23.1c0-1.255-.861-1.978-2.369-1.978H37.8v6.7h1.31V25.126h.17l1.8,2.694H42.7L40.591,25A1.779,1.779,0,0,0,42.116,23.1ZM39.5,24.2h-.379V22.176h.4c.817,0,1.254.343,1.254,1C40.771,23.841,40.333,24.2,39.5,24.2Z" transform="translate(961.465 416.021)" fill="#444"></path></g></g></svg> 