<?xml version="1.0" encoding="UTF-8"?> <svg xmlns="http://www.w3.org/2000/svg" xmlns:xlink="http://www.w3.org/1999/xlink" width="74" height="52" viewBox="0 0 74 52"><defs><linearGradient id="linear-gradient" x1="0.975" y1="0.925" x2="0.04" gradientUnits="objectBoundingBox"><stop offset="0" stop-color="#f5f5f5"></stop><stop offset="1" stop-color="#f5f5f5"></stop></linearGradient><filter id="Rectangle_1" x="0" y="0" width="74" height="52" filterUnits="userSpaceOnUse"><feOffset dy="3"></feOffset><feGaussianBlur stdDeviation="3" result="blur"></feGaussianBlur><feFlood flood-opacity="0.161"></feFlood><feComposite operator="in" in2="blur"></feComposite><feComposite in="SourceGraphic"></feComposite></filter></defs><g id="Group_28" data-name="Group 28" transform="translate(-425 -417)"><g transform="matrix(1, 0, 0, 1, 425, 417)" filter="url(#Rectangle_1)"><rect id="Rectangle_1-2" data-name="Rectangle 1" width="56" height="34" rx="3" transform="translate(9 6)" fill="url(#linear-gradient)"></rect></g><g id="Group_2" data-name="Group 2" transform="translate(440.821 433.929)"><path id="Path_5" data-name="Path 5" d="M19.238,31.57H22.6l2.105-12.346H21.342Z" transform="translate(-4.595 -19.012)" fill="#1a1876"></path><path id="Path_6" data-name="Path 6" d="M30.263,24.229c-1.176-.571-1.9-.953-1.889-1.53,0-.516.61-1.062,1.934-1.062a6.076,6.076,0,0,1,2.82.615l.456-2.675a8.7,8.7,0,0,0-3.017-.516c-3.325,0-5.673,1.676-5.687,4.074-.018,1.774,1.676,2.764,2.948,3.352,1.31.6,1.751.99,1.744,1.53-.009.828-1.046,1.207-2.014,1.207a7.368,7.368,0,0,1-3.6-.844l-.472,2.763a10.629,10.629,0,0,0,3.748.659c3.538,0,5.834-1.655,5.86-4.217C33.1,26.178,32.2,25.109,30.263,24.229Z" transform="translate(-3.366 -19.06)" fill="#1a1876"></path><path id="Path_7" data-name="Path 7" d="M40.107,19.236h-2.6a1.676,1.676,0,0,0-1.762,1.024l-5,11.31h3.534s.578-1.521.708-1.855H39.3c.1.433.41,1.85.41,1.85h3.123Zm-4.149,7.958c.139-.357,1.512-3.883,1.787-4.63.454,2.127.012.063,1.006,4.63Z" transform="translate(-1.266 -19.013)" fill="#1a1876"></path><path id="Path_8" data-name="Path 8" d="M19.7,19.235l-3.3,8.419-.351-1.711-1.18-5.673a1.409,1.409,0,0,0-1.526-1.043H7.923l-.043.258a14.135,14.135,0,0,1,3.535,1.355l2.991,10.722h3.561l5.3-12.322Z" transform="translate(-7.88 -19.014)" fill="#1a1876"></path></g></g></svg> 