<?xml version="1.0" encoding="UTF-8"?> <svg xmlns="http://www.w3.org/2000/svg" xmlns:xlink="http://www.w3.org/1999/xlink" width="74" height="52" viewBox="0 0 74 52"><defs><linearGradient id="linear-gradient" x1="0.975" y1="0.925" x2="0.04" gradientUnits="objectBoundingBox"><stop offset="0" stop-color="#f5f5f5"></stop><stop offset="1" stop-color="#f5f5f5"></stop></linearGradient><filter id="Rectangle_4" x="0" y="0" width="74" height="52" filterUnits="userSpaceOnUse"><feOffset dy="3"></feOffset><feGaussianBlur stdDeviation="3" result="blur"></feGaussianBlur><feFlood flood-opacity="0.161"></feFlood><feComposite operator="in" in2="blur"></feComposite><feComposite in="SourceGraphic"></feComposite></filter><clipPath id="clip-path"><rect id="Rectangle_5" data-name="Rectangle 5" width="26.39" height="20.506" fill="none"></rect></clipPath></defs><g id="Group_26" data-name="Group 26" transform="translate(-554 -417)"><g transform="matrix(1, 0, 0, 1, 554, 417)" filter="url(#Rectangle_4)"><rect id="Rectangle_4-2" data-name="Rectangle 4" width="56" height="34" rx="3" transform="translate(9 6)" fill="url(#linear-gradient)"></rect></g><g id="Group_8" data-name="Group 8" transform="translate(577.498 429.747)"><g id="Group_7" data-name="Group 7" clip-path="url(#clip-path)"><path id="Path_22" data-name="Path 22" d="M15.951,174.364a.8.8,0,0,0-.269-.177.9.9,0,0,0-.341-.063,1.291,1.291,0,0,0-.2.017.9.9,0,0,0-.207.06.782.782,0,0,0-.193.118.71.71,0,0,0-.159.19.776.776,0,0,0-.3-.283.87.87,0,0,0-.426-.1,1,1,0,0,0-.167.015.77.77,0,0,0-.171.051.679.679,0,0,0-.3.255v-.264h-.454v2.158h.458v-1.2a.645.645,0,0,1,.044-.244.528.528,0,0,1,.117-.179.483.483,0,0,1,.171-.109.585.585,0,0,1,.209-.037.45.45,0,0,1,.359.146.619.619,0,0,1,.128.419v1.2H14.7v-1.2a.643.643,0,0,1,.044-.244.526.526,0,0,1,.117-.179.483.483,0,0,1,.171-.109.585.585,0,0,1,.209-.037.451.451,0,0,1,.359.146.619.619,0,0,1,.127.419v1.2h.458v-1.356a.939.939,0,0,0-.062-.347.79.79,0,0,0-.175-.271" transform="translate(-11.43 -155.957)" fill="#161615"></path><path id="Path_23" data-name="Path 23" d="M51.394,174.442a.845.845,0,0,0-.279-.231.854.854,0,0,0-.4-.087,1.052,1.052,0,0,0-.766.32,1.091,1.091,0,0,0-.23.359,1.29,1.29,0,0,0,0,.912,1.093,1.093,0,0,0,.23.359,1.053,1.053,0,0,0,.766.32.864.864,0,0,0,.4-.086.832.832,0,0,0,.279-.23v.259h.471V174.18h-.471Zm-.018,1.093a.656.656,0,0,1-.133.219.617.617,0,0,1-.205.145.7.7,0,0,1-.54,0,.609.609,0,0,1-.2-.149.659.659,0,0,1-.128-.22.82.82,0,0,1,0-.536.658.658,0,0,1,.128-.22.608.608,0,0,1,.2-.149.7.7,0,0,1,.54,0,.615.615,0,0,1,.205.145.656.656,0,0,1,.133.218.823.823,0,0,1,0,.55" transform="translate(-44.458 -155.957)" fill="#161615"></path><path id="Path_24" data-name="Path 24" d="M77.06,175.276a1.165,1.165,0,0,0-.552-.206l-.223-.034q-.074-.011-.14-.026a.454.454,0,0,1-.113-.039.216.216,0,0,1-.075-.063.155.155,0,0,1-.028-.095.215.215,0,0,1,.107-.186.542.542,0,0,1,.3-.071,1.092,1.092,0,0,1,.2.018,1.657,1.657,0,0,1,.186.045,1.352,1.352,0,0,1,.16.06,1.307,1.307,0,0,1,.122.062l.2-.367a1.384,1.384,0,0,0-.394-.168,1.868,1.868,0,0,0-.48-.06,1.317,1.317,0,0,0-.372.048.852.852,0,0,0-.28.137.6.6,0,0,0-.178.217.654.654,0,0,0-.062.288.532.532,0,0,0,.186.422,1.038,1.038,0,0,0,.546.211l.225.029a.708.708,0,0,1,.284.087.177.177,0,0,1,.09.152.215.215,0,0,1-.124.193.756.756,0,0,1-.367.071,1.4,1.4,0,0,1-.238-.018,1.19,1.19,0,0,1-.191-.048.925.925,0,0,1-.155-.07,1.134,1.134,0,0,1-.127-.085l-.219.354a1.162,1.162,0,0,0,.246.142,1.686,1.686,0,0,0,.252.084,1.6,1.6,0,0,0,.234.041q.11.01.194.01a1.531,1.531,0,0,0,.416-.052.932.932,0,0,0,.309-.145.644.644,0,0,0,.191-.223.615.615,0,0,0,.066-.285.516.516,0,0,0-.2-.431" transform="translate(-67.488 -155.976)" fill="#161615"></path><path id="Path_25" data-name="Path 25" d="M118.456,174.438a.922.922,0,0,0-.322-.232,1.02,1.02,0,0,0-.413-.082,1.121,1.121,0,0,0-.436.082.98.98,0,0,0-.339.232,1.056,1.056,0,0,0-.221.359,1.3,1.3,0,0,0-.079.462,1.281,1.281,0,0,0,.081.466,1.035,1.035,0,0,0,.227.358,1.009,1.009,0,0,0,.349.23,1.19,1.19,0,0,0,.446.081,1.6,1.6,0,0,0,.468-.068,1.176,1.176,0,0,0,.42-.237l-.234-.336a1.055,1.055,0,0,1-.3.168.942.942,0,0,1-.326.06.767.767,0,0,1-.221-.032.579.579,0,0,1-.192-.1.591.591,0,0,1-.146-.17.7.7,0,0,1-.083-.25h1.6c0-.027.005-.055.007-.086s0-.06,0-.09a1.346,1.346,0,0,0-.075-.461,1.084,1.084,0,0,0-.21-.358m-1.317.636a.8.8,0,0,1,.063-.215.578.578,0,0,1,.116-.169.487.487,0,0,1,.169-.109.612.612,0,0,1,.224-.038.5.5,0,0,1,.367.14.674.674,0,0,1,.18.392Z" transform="translate(-104.476 -155.957)" fill="#161615"></path><path id="Path_26" data-name="Path 26" d="M178.87,174.442a.844.844,0,0,0-.279-.231.854.854,0,0,0-.4-.087,1.052,1.052,0,0,0-.766.32,1.09,1.09,0,0,0-.23.359,1.29,1.29,0,0,0,0,.912,1.091,1.091,0,0,0,.23.359,1.053,1.053,0,0,0,.766.32.864.864,0,0,0,.4-.086.831.831,0,0,0,.279-.23v.259h.471V174.18h-.471Zm-.018,1.093a.656.656,0,0,1-.133.219.617.617,0,0,1-.205.145.7.7,0,0,1-.54,0,.61.61,0,0,1-.2-.149.659.659,0,0,1-.128-.22.82.82,0,0,1,0-.536.659.659,0,0,1,.128-.22.609.609,0,0,1,.2-.149.7.7,0,0,1,.54,0,.616.616,0,0,1,.205.145.656.656,0,0,1,.133.218.823.823,0,0,1,0,.55" transform="translate(-158.634 -155.957)" fill="#161615"></path><path id="Path_27" data-name="Path 27" d="M98.472,170.782a.634.634,0,0,1-.224.043.387.387,0,0,1-.134-.023.278.278,0,0,1-.108-.071.345.345,0,0,1-.073-.125.557.557,0,0,1-.027-.185v-.939h.756v-.428h-.756V168.4h-.473v.653H97v.428h.43v.948a.865.865,0,0,0,.2.634.772.772,0,0,0,.571.2,1.016,1.016,0,0,0,.368-.063,1.564,1.564,0,0,0,.2-.095l-.161-.394a1.194,1.194,0,0,1-.144.065" transform="translate(-86.881 -150.831)" fill="#161615"></path><path id="Path_28" data-name="Path 28" d="M142.791,174.124a.864.864,0,0,0-.358.072.762.762,0,0,0-.268.267v-.283h-.428v2.158h.432v-1.187a.733.733,0,0,1,.038-.246.531.531,0,0,1,.106-.182.439.439,0,0,1,.162-.113.548.548,0,0,1,.207-.038.922.922,0,0,1,.185.02.775.775,0,0,1,.095.025l.139-.451a.864.864,0,0,0-.115-.029,1.183,1.183,0,0,0-.195-.015" transform="translate(-126.949 -155.957)" fill="#161615"></path><path id="Path_29" data-name="Path 29" d="M205.529,174.124a.864.864,0,0,0-.358.072.762.762,0,0,0-.268.267v-.283h-.428v2.158h.432v-1.187a.733.733,0,0,1,.038-.246.531.531,0,0,1,.106-.182.439.439,0,0,1,.162-.113.548.548,0,0,1,.207-.038.922.922,0,0,1,.185.02.775.775,0,0,1,.095.025l.139-.451a.864.864,0,0,0-.115-.029,1.183,1.183,0,0,0-.195-.015" transform="translate(-183.141 -155.957)" fill="#161615"></path><path id="Path_30" data-name="Path 30" d="M220.569,166.256v1.139a.845.845,0,0,0-.279-.231.854.854,0,0,0-.4-.087,1.053,1.053,0,0,0-.766.32,1.089,1.089,0,0,0-.23.359,1.289,1.289,0,0,0,0,.912,1.09,1.09,0,0,0,.23.359,1.053,1.053,0,0,0,.766.32.863.863,0,0,0,.4-.086.831.831,0,0,0,.279-.23v.259h.471v-3.036Zm-.018,2.231a.656.656,0,0,1-.133.219.616.616,0,0,1-.205.145.7.7,0,0,1-.54,0,.609.609,0,0,1-.2-.149.659.659,0,0,1-.128-.22.82.82,0,0,1,0-.536.658.658,0,0,1,.128-.22.608.608,0,0,1,.2-.149.7.7,0,0,1,.54,0,.615.615,0,0,1,.205.145.656.656,0,0,1,.133.218.823.823,0,0,1,0,.55" transform="translate(-195.982 -148.91)" fill="#161615"></path><path id="Path_31" data-name="Path 31" d="M156.817,174.761a.635.635,0,0,1,.214-.142.7.7,0,0,1,.268-.051.839.839,0,0,1,.295.051.706.706,0,0,1,.229.136l.227-.377a1.153,1.153,0,0,0-.287-.167,1.281,1.281,0,0,0-.926,0,1.116,1.116,0,0,0-.367.239,1.1,1.1,0,0,0-.242.359,1.2,1.2,0,0,0,0,.9,1.1,1.1,0,0,0,.242.359,1.117,1.117,0,0,0,.367.239,1.28,1.28,0,0,0,.926,0,1.154,1.154,0,0,0,.287-.167l-.227-.377a.708.708,0,0,1-.229.136.839.839,0,0,1-.295.051.7.7,0,0,1-.268-.051.632.632,0,0,1-.214-.142.662.662,0,0,1-.142-.218.786.786,0,0,1,0-.561.661.661,0,0,1,.142-.219" transform="translate(-139.848 -155.958)" fill="#161615"></path><path id="Path_32" data-name="Path 32" d="M247.723,192.32a.225.225,0,0,1,.088.017.228.228,0,0,1,.072.047.224.224,0,0,1,.048.07.217.217,0,0,1,0,.171.226.226,0,0,1-.208.135.231.231,0,0,1-.09-.017.226.226,0,0,1-.072-.048.221.221,0,0,1-.048-.07.218.218,0,0,1,0-.171.22.22,0,0,1,.048-.07.229.229,0,0,1,.072-.047.231.231,0,0,1,.09-.017m0,.379a.154.154,0,0,0,.062-.013.157.157,0,0,0,.084-.085.164.164,0,0,0,0-.124.156.156,0,0,0-.034-.05.161.161,0,0,0-.05-.034.154.154,0,0,0-.062-.013.158.158,0,0,0-.063.013.163.163,0,0,0-.051.034.153.153,0,0,0-.034.05.16.16,0,0,0,.034.175.163.163,0,0,0,.051.034.159.159,0,0,0,.063.013m.013-.257a.091.091,0,0,1,.061.018.06.06,0,0,1,.021.048.053.053,0,0,1-.015.039.076.076,0,0,1-.043.02l.061.07h-.066l-.054-.068h-.006v.068h-.055v-.2Zm-.042.048v.036h.041a.039.039,0,0,0,.02,0,.014.014,0,0,0,.007-.014.015.015,0,0,0-.007-.014.036.036,0,0,0-.02,0Z" transform="translate(-221.673 -172.254)" fill="#161615"></path><path id="Path_33" data-name="Path 33" d="M10.091,8.134A8.117,8.117,0,0,1,13.18,1.756a8.134,8.134,0,1,0,0,12.756,8.117,8.117,0,0,1-3.089-6.378" fill="#d90010"></path><path id="Path_34" data-name="Path 34" d="M96.719,23.212a8.117,8.117,0,0,0,3.089,6.378,8.129,8.129,0,0,0,0-12.756,8.117,8.117,0,0,0-3.089,6.378" transform="translate(-86.628 -15.078)" fill="#e54800"></path><path id="Path_35" data-name="Path 35" d="M246.534,117.529v-.238h-.1v-.065h.264v.065h-.1v.238Zm.51,0v-.211l-.068.182H246.9l-.068-.181v.21h-.071v-.3h.1l.075.194.075-.194h.1v.3Z" transform="translate(-220.726 -104.995)" fill="#f78b00"></path><path id="Path_36" data-name="Path 36" d="M131.37,0a8.1,8.1,0,0,0-5.046,1.756,8.129,8.129,0,0,1,0,12.756A8.134,8.134,0,1,0,131.37,0" transform="translate(-113.144)" fill="#f78b00"></path></g></g></g></svg> 