<?xml version="1.0" encoding="UTF-8"?> <svg xmlns="http://www.w3.org/2000/svg" xmlns:xlink="http://www.w3.org/1999/xlink" width="74" height="52" viewBox="0 0 74 52"><defs><linearGradient id="linear-gradient" x1="0.975" y1="0.925" x2="0.04" gradientUnits="objectBoundingBox"><stop offset="0" stop-color="#f5f5f5"></stop><stop offset="1" stop-color="#f5f5f5"></stop></linearGradient><filter id="Rectangle_12" x="0" y="0" width="74" height="52" filterUnits="userSpaceOnUse"><feOffset dy="3"></feOffset><feGaussianBlur stdDeviation="3" result="blur"></feGaussianBlur><feFlood flood-opacity="0.161"></feFlood><feComposite operator="in" in2="blur"></feComposite><feComposite in="SourceGraphic"></feComposite></filter></defs><g id="Group_21" data-name="Group 21" transform="translate(-872 -417)"><g transform="matrix(1, 0, 0, 1, 872, 417)" filter="url(#Rectangle_12)"><rect id="Rectangle_12-2" data-name="Rectangle 12" width="56" height="34" rx="3" transform="translate(9 6)" fill="url(#linear-gradient)"></rect></g><path id="Path_62" data-name="Path 62" d="M11,24.886h2.526l-1.263-3.1ZM46.2,19H39.726l-1.579,1.7L36.726,19H22.995l-1.263,2.787L20.468,19H14.944v1.239L14.313,19H9.577L5,29.841h5.525l.631-1.7h1.579l.631,1.7h6.156V28.6l.474,1.239h3.157l.474-1.394v1.394H36.253l1.579-1.7,1.42,1.7h6.471l-4.1-5.421ZM27.1,28.292H25.361v-6.04l-2.683,6.04H21.1l-2.683-6.04v6.04H14.785l-.631-1.7H10.366l-.631,1.7H7.683L11,20.548h2.683l3,7.279V20.548h3l2.368,5.266,2.209-5.266h3v7.744Zm15.627,0H40.357L38.3,25.659l-2.368,2.633h-7.1V20.548h7.26L38.3,23.026l2.368-2.478h2.209l-3.471,3.873ZM30.57,22.1v1.394h3.946v1.549H30.57v1.548h4.42l2.052-2.323L35.149,22.1Z" transform="translate(883 416)" fill="#2e77bb"></path></g></svg> 