<?xml version="1.0" encoding="UTF-8"?> <svg xmlns="http://www.w3.org/2000/svg" width="36.434" height="35.667" viewBox="0 0 36.434 35.667"><g id="Group_160" data-name="Group 160" transform="translate(-44.886)"><g id="Group_161" data-name="Group 161"><path id="Path_55" data-name="Path 55" d="M362,35.667H346.159a10.209,10.209,0,0,1-10.295-10.1V10.1A10.209,10.209,0,0,1,346.159,0H362A10.209,10.209,0,0,1,372.3,10.1V25.57A10.209,10.209,0,0,1,362,35.667M346.159,2.3a7.88,7.88,0,0,0-7.947,7.794V25.57a7.88,7.88,0,0,0,7.947,7.794H362a7.88,7.88,0,0,0,7.947-7.794V10.1A7.88,7.88,0,0,0,362,2.3Z" transform="translate(-290.978)" fill="#fff"></path><path id="Path_57" data-name="Path 57" d="M410.9,57.186a5.752,5.752,0,0,0-1.8-3.73,6.241,6.241,0,0,0-4.086-1.627,81.941,81.941,0,0,0-11.022.121,5.586,5.586,0,0,0-4.821,4.244c-.531,1.86-.426,10.43-.116,12.269a5.576,5.576,0,0,0,4.477,4.767c1.758.445,10.4.388,12.335.08a5.61,5.61,0,0,0,4.882-4.37c.509-1.909.331-10.031.153-11.753m-2.051,10.921a3.742,3.742,0,0,1-3.547,3.3c-1.8.193-9.825.3-11.492-.158a3.608,3.608,0,0,1-2.772-3.087,71.763,71.763,0,0,1,0-11.029,3.735,3.735,0,0,1,3.531-3.287,80.052,80.052,0,0,1,10.969.043,3.732,3.732,0,0,1,3.36,3.484,76.943,76.943,0,0,1-.046,10.732m-8.909-11.08a5.605,5.605,0,1,0,5.711,5.607,5.66,5.66,0,0,0-5.711-5.607m-.039,9.224a3.625,3.625,0,1,1,3.728-3.591,3.659,3.659,0,0,1-3.728,3.591m7.314-9.436a1.338,1.338,0,1,1-1.335-1.315,1.325,1.325,0,0,1,1.335,1.315" transform="translate(-336.836 -44.795)" fill="#fff"></path></g></g></svg> 