<?xml version="1.0" encoding="UTF-8"?> <svg xmlns="http://www.w3.org/2000/svg" xmlns:xlink="http://www.w3.org/1999/xlink" width="74" height="52" viewBox="0 0 74 52"><defs><linearGradient id="linear-gradient" x1="0.975" y1="0.925" x2="0.04" gradientUnits="objectBoundingBox"><stop offset="0" stop-color="#f5f5f5"></stop><stop offset="1" stop-color="#f5f5f5"></stop></linearGradient><filter id="Rectangle_7" x="0" y="0" width="74" height="52" filterUnits="userSpaceOnUse"><feOffset dy="3"></feOffset><feGaussianBlur stdDeviation="3" result="blur"></feGaussianBlur><feFlood flood-opacity="0.161"></feFlood><feComposite operator="in" in2="blur"></feComposite><feComposite in="SourceGraphic"></feComposite></filter></defs><g id="Group_23" data-name="Group 23" transform="translate(-743 -417)"><g transform="matrix(1, 0, 0, 1, 743, 417)" filter="url(#Rectangle_7)"><rect id="Rectangle_7-2" data-name="Rectangle 7" width="56" height="34" rx="3" transform="translate(9 6)" fill="url(#linear-gradient)"></rect></g><g id="Group_14" data-name="Group 14" transform="translate(-158.616 -5.264)"><g id="Group_11" data-name="Group 11" transform="translate(934.529 438.579)"><path id="Path_38" data-name="Path 38" d="M102,136.442a3.936,3.936,0,0,0-2.781-.95,3.827,3.827,0,0,0-3.393,1.67l1.4.891a2.406,2.406,0,0,1,2.1-1.142,2.288,2.288,0,0,1,1.529.591,1.891,1.891,0,0,1,.651,1.426v.37a4.722,4.722,0,0,0-2.327-.521,4.124,4.124,0,0,0-2.653.791,2.575,2.575,0,0,0-1,2.12,2.67,2.67,0,0,0,.937,2.1,3.378,3.378,0,0,0,2.338.841,3.016,3.016,0,0,0,2.62-1.471h.067v1.191h1.519v-5.288a3.375,3.375,0,0,0-1.011-2.62Zm-1.292,6a2.507,2.507,0,0,1-1.785.75,1.922,1.922,0,0,1-1.232-.42,1.3,1.3,0,0,1-.522-1.05,1.4,1.4,0,0,1,.641-1.17,2.7,2.7,0,0,1,1.617-.47,3.148,3.148,0,0,1,2.069.59A2.378,2.378,0,0,1,100.706,142.442ZM94.413,132.9a3.743,3.743,0,0,0-2.722-1.1H87.481v12.547h1.588V139.27h2.62a3.785,3.785,0,0,0,2.722-1.07l.178-.18a3.658,3.658,0,0,0-.175-5.122ZM93.3,137.082a2.059,2.059,0,0,1-1.568.65H89.068v-4.381h2.663a2.15,2.15,0,0,1,1.518.62,2.229,2.229,0,0,1,.05,3.108Zm16.706-1.312-2.455,6.161h-.03l-2.514-6.161H103.28l3.48,8.033-1.972,4.322h1.636l5.308-12.354Z" transform="translate(-87.481 -131.805)"></path></g><g id="Group_12" data-name="Group 12" transform="translate(918.616 438.579)"><path id="Path_39" data-name="Path 39" d="M9.955,4.585a3.715,3.715,0,0,1,2.4.875l1.879-1.789A6.313,6.313,0,0,0,4.293,5.515L6.411,7.148A3.739,3.739,0,0,1,9.955,4.585Z" transform="translate(-3.634 -2)" fill="#d94f3d"></path><path id="Path_40" data-name="Path 40" d="M4.586,17.041a3.718,3.718,0,0,1,.191-1.172L2.659,14.236a6.3,6.3,0,0,0,0,5.61l2.118-1.633a3.718,3.718,0,0,1-.191-1.172Z" transform="translate(-2 -10.721)" fill="#f2c042"></path><path id="Path_41" data-name="Path 41" d="M30.133,20H24.1v2.586h3.419a3.082,3.082,0,0,1-1.309,1.77l2.1,1.62C29.655,24.771,30.444,22.811,30.133,20Z" transform="translate(-17.751 -14.829)" fill="#5085ed"></path><path id="Path_42" data-name="Path 42" d="M12.093,30.115a4.016,4.016,0,0,1-2.138.528,3.739,3.739,0,0,1-3.543-2.562L4.293,29.714a6.327,6.327,0,0,0,5.662,3.515,6.282,6.282,0,0,0,4.24-1.494Z" transform="translate(-3.634 -20.588)" fill="#57a75c"></path></g></g></g></svg> 